# xmcd
#
# Track frame offsets: 
#        150
#        5971
#        16983
#        28209
#        38296
#        55730
#        64144
#        68809
#        81531
#        97315
#        109663
#        119959
#        128488
#
# Disc length: 1907 seconds
#
# Revision: 0
# Processed by: cddbd v1.5.2PL0 Copyright (c) Steve Scherf et al.
# Submitted via: ExactAudioCopy v0.99pb3
#
DISCID=b707710d
DTITLE=Minnetonka - Orchard Street Sounds
DYEAR=1997
DGENRE=Blackbean And Placenta
TTITLE0=Snapshots And Scrapbooks
TTITLE1=Poloroids Destroyed
TTITLE2=Peppermint Gum
TTITLE3=Landlocked
TTITLE4=Smouldering Souls
TTITLE5=Half Empty
TTITLE6=Winterlude
TTITLE7=I've Forgotten All My Dreams
TTITLE8=X-Mas Gifts
TTITLE9=Like The Pioneers
TTITLE10=Lung Capacity
TTITLE11=Delinquent
TTITLE12=Don't Worry For Me
EXTD=
EXTT0=
EXTT1=
EXTT2=
EXTT3=
EXTT4=
EXTT5=
EXTT6=
EXTT7=
EXTT8=
EXTT9=
EXTT10=
EXTT11=
EXTT12=
PLAYORDER=
